<svg data-name="Layer 1" xmlns="http://www.w3.org/2000/svg" viewBox="0 0 551.3 139.2">
  <path d="M42.4 4.9A41.3 41.3 0 0 1 56.8 7 33.1 33.1 0 0 1 67.1 13a24.5 24.5 0 0 1 6.4 27.9 26 26 0 0 1-5.6 8.6 34 34 0 0 1-9.4 6.8 44.4 44.4 0 0 1-13.4 4L45 67v2.5l-.2 2.3v2.9a45.8 45.8 0 0 1-6.2 21A30 30 0 0 1 34 101a21.8 21.8 0 0 1-5.7 3.8 17.4 17.4 0 0 1-6.9 1.4 12.7 12.7 0 0 1-7.2-2.1 19.6 19.6 0 0 1-5.5-5.6 34 34 0 0 1-4-8.1A73.7 73.7 0 0 1 .5 70.8a82.5 82.5 0 0 1 1-24.3 65 65 0 0 1 10.4-25A42.3 42.3 0 0 1 30.7 6.9a34.2 34.2 0 0 1 11.7-2zM13.1 60v5.4l.3 7.3c.2 2.6.4 5.2.8 7.8a47.8 47.8 0 0 0 1.6 7.2 19.5 19.5 0 0 0 2.6 5.2 4.8 4.8 0 0 0 4 2 5.7 5.7 0 0 0 4.2-1.7 15.2 15.2 0 0 0 3-4.5 55.5 55.5 0 0 0 2.8-13.3c.2-2.3.4-4.6.4-6.7l.1-5.4V61l-6.4-2.8A19.2 19.2 0 0 1 23 56a4.7 4.7 0 0 1-1.5-2.4 12.3 12.3 0 0 1-.3-3V49a3.3 3.3 0 0 1 .3-1.5l.6-1.1a1.5 1.5 0 0 1 1.1-.4l1 .2 1 .5L28 48a35.2 35.2 0 0 0 4.2 1.5V47a37.3 37.3 0 0 1 1.2-9.4 14.6 14.6 0 0 1 2-4.8 10.2 10.2 0 0 1 3.1-3.6 7.6 7.6 0 0 1 4.8-1.4l1.8.2a4.4 4.4 0 0 1 3 1.8 4 4 0 0 1 .5 2v.8l-3 12.5-.4 3.9a35.6 35.6 0 0 0 8.3-2.3 17 17 0 0 0 9.1-8.6 12.7 12.7 0 0 0 1.1-5.4 21.3 21.3 0 0 0-1-5.6 13.6 13.6 0 0 0-3.6-5.2 20.5 20.5 0 0 0-6.9-4 33.7 33.7 0 0 0-10.9-1.4 19.7 19.7 0 0 0-8.9 1.9 25.7 25.7 0 0 0-7 5 30.4 30.4 0 0 0-5.5 7.6 54.4 54.4 0 0 0-6 19.2 53.3 53.3 0 0 0-.8 9.8zm84-2.7a25.1 25.1 0 0 1 2.1 6 26.1 26.1 0 0 1 .1 11.8A28.3 28.3 0 0 1 94.6 86a22.8 22.8 0 0 1-4 4.2 18.3 18.3 0 0 1-4.9 2.8 15 15 0 0 1-5.6 1 13.3 13.3 0 0 1-7.3-2 16.7 16.7 0 0 1-5-4.8 21.8 21.8 0 0 1-2.9-6.8 34.7 34.7 0 0 1 .7-17.8A21.7 21.7 0 0 1 87.3 47a27.2 27.2 0 0 1 16.3 5.3 43.8 43.8 0 0 1 6.6 5.5c2 2 4 4.2 5.7 6.4l-.9 6.9a68.7 68.7 0 0 0-8.4-7.8l-5-3.7-4.2-3zm-15 27.2a4.5 4.5 0 0 0 3.2-1.7 14.5 14.5 0 0 0 2.7-4.2 29.6 29.6 0 0 0 2.3-15.8 12.9 12.9 0 0 0-1-3.3 5.6 5.6 0 0 0-1.8-2.2 3.9 3.9 0 0 0-2.6-.8 5.7 5.7 0 0 0-3.8 1.7 17.1 17.1 0 0 0-3.2 4.4 27 27 0 0 0-2.9 12 16.1 16.1 0 0 0 .4 4 11.1 11.1 0 0 0 1.2 3 6.3 6.3 0 0 0 2.2 2.2 8 8 0 0 0 3.3.7z"/>
  <path d="M110.5 83.7l.2-5 .7-6 1-6.5 2.5-11.8a22.1 22.1 0 0 1 1.3-4.1 9.1 9.1 0 0 1 .8-1.7l1-1a5 5 0 0 1 1.2-.5l2-.1h2a1.4 1.4 0 0 1 1 .7 2.5 2.5 0 0 1 .3 1.3l.1 2.4v4.4l.1 5h.5l2.2-4.3a34 34 0 0 1 2.8-4.5 15.3 15.3 0 0 1 3.7-3.5 7.9 7.9 0 0 1 6.5-1.1 3.8 3.8 0 0 1 1.5.9 4.7 4.7 0 0 1 1.4 3.3l-.2 2.3-.5 3-.5 3.3a12.8 12.8 0 0 0-.2 2.6 11.7 11.7 0 0 0 .3 2.9 4.8 4.8 0 0 0 1 1.9 3 3 0 0 0 1.2 1l1.5.3a10.5 10.5 0 0 0 4.5-1 33 33 0 0 0 8.8-5.4l-.7 11.4-2.9 1.9a39.4 39.4 0 0 1-7.2 3.4 13.9 13.9 0 0 1-4 .6 10.5 10.5 0 0 1-5.9-1.5 11.2 11.2 0 0 1-3.6-4 21.6 21.6 0 0 1-2-5.3 59.7 59.7 0 0 1-1-6.1h-.9l-8.7 24.4a30.1 30.1 0 0 1-2.5 5 3.8 3.8 0 0 1-3 1.5 5.3 5.3 0 0 1-3.2-1 6 6 0 0 1-1.9-2.2 20 20 0 0 1-1.2-7z"/>
  <path d="M194.2 83l-8.3 4.8a82 82 0 0 1-11.6 5.5 12.5 12.5 0 0 1-4 .7 9.8 9.8 0 0 1-6.5-2.2 16 16 0 0 1-4.7-6.5 41.4 41.4 0 0 1-2.9-10.2 79 79 0 0 1-1-13.5l.2-6.3.7-6.6-2.3-.4-1.7-.3-2.3-.4-4-.5a3.8 3.8 0 0 1-1.8-.6 2.8 2.8 0 0 1-1.2-2.2v-1a1.6 1.6 0 0 1 1-1.5 7.5 7.5 0 0 1 2.4-.8 16.9 16.9 0 0 1 3.3-.3h8.1a89.8 89.8 0 0 1 7.8-23.8 29.9 29.9 0 0 1 5.5-7.7 9.2 9.2 0 0 1 6.3-3 6.4 6.4 0 0 1 3.8 1.3 11.1 11.1 0 0 1 3 3 17.7 17.7 0 0 1 2 4.7 18.8 18.8 0 0 1 0 10.5 39.7 39.7 0 0 1-4.8 11l-3.3 5.6h1.5l2.4.2h3l3 .2h2.6l2.1.2a1.5 1.5 0 0 1 1.4 1 5.3 5.3 0 0 1 .4 2.3 3.9 3.9 0 0 1-1 2.8 3.1 3.1 0 0 1-2 1h-18.9l-2.9 3.9-2.7 3.4-.3 6v2.6l-.2 2.7v4.7a17.8 17.8 0 0 0 .4 4.4 8.3 8.3 0 0 0 1.4 3 5.5 5.5 0 0 0 2.3 1.7 9.4 9.4 0 0 0 3 .5 10.5 10.5 0 0 0 2.6-.5l3.4-1.3 4-2a34.2 34.2 0 0 0 4-2.6l3.7-3 3.3-3V83h-.2zm-15.6-61.8V20l-.4-1.2a2.5 2.5 0 0 0-.8-1 2 2 0 0 0-1.4-.4c-.8 0-1.7.7-2.6 2.2a31.1 31.1 0 0 0-2.5 5.7c-.8 2.3-1.5 4.9-2.2 7.7l-1.9 8.2 1.5.2 1.5.2 3.1-5.4a82.8 82.8 0 0 0 5-11 20.5 20.5 0 0 0 .7-4z"/>
  <path d="M224.3 57.4a25.1 25.1 0 0 1 2.1 6 26.1 26.1 0 0 1 .1 11.8 28.3 28.3 0 0 1-4.7 10.8 22.8 22.8 0 0 1-4 4.2A18.3 18.3 0 0 1 213 93a15 15 0 0 1-5.6 1 13.3 13.3 0 0 1-7.3-2 16.7 16.7 0 0 1-5-4.8 21.8 21.8 0 0 1-2.9-6.8 33.2 33.2 0 0 1 .7-17.7 21.7 21.7 0 0 1 21.7-15.5 27.2 27.2 0 0 1 16.3 5.3 43.8 43.8 0 0 1 6.6 5.5c2 2 4 4.2 5.7 6.4l-.9 6.9a68.7 68.7 0 0 0-8.4-7.8l-5-3.7-4.2-3-.3.6zm-15 27.2a4.5 4.5 0 0 0 3.1-1.7 14.5 14.5 0 0 0 2.7-4.2 29.6 29.6 0 0 0 2.3-15.8 12.9 12.9 0 0 0-1-3.3 5.6 5.6 0 0 0-1.8-2.2 3.9 3.9 0 0 0-2.6-.8 5.7 5.7 0 0 0-3.8 1.7 17.1 17.1 0 0 0-3.2 4.4 27 27 0 0 0-2.9 12 16.1 16.1 0 0 0 .4 4 11.1 11.1 0 0 0 1.2 3A6.3 6.3 0 0 0 206 84a8 8 0 0 0 3.3.7z"/>
  <path d="M258.5 88.8a25.7 25.7 0 0 1-5.5 3.8 11.8 11.8 0 0 1-5.5 1.4 10.6 10.6 0 0 1-4.6-1 13 13 0 0 1-6.6-7 17.2 17.2 0 0 1-1-5.8 28.7 28.7 0 0 1 1-7.5 40 40 0 0 1 12.5-20.2 29.2 29.2 0 0 1 6.2-4 15.7 15.7 0 0 1 6.6-1.3 3.4 3.4 0 0 1 1.8.4 3.2 3.2 0 0 1 1 1l.8 1a2.5 2.5 0 0 0 1 .9l1.2.3H270.8l1.4.2a2.4 2.4 0 0 1 1.1.6 3.7 3.7 0 0 1 .8 1.4 7.8 7.8 0 0 1 .3 2.4l-.2 3.4-.5 4.8-.8 5.6-.9 5.8-2.3 14.4a33.5 33.5 0 0 0 7-5.4 109.4 109.4 0 0 0 10.5-13l2.3 10.9a19 19 0 0 1-2.3 3c-.9 1.2-2 2.2-3 3.3A57 57 0 0 1 277 94c-2.8 2-5.7 4-8.9 6-.6 3.6-1.4 7-2.2 10.3a64.2 64.2 0 0 1-7 17.2 30.2 30.2 0 0 1-5 6.2 19.9 19.9 0 0 1-6.3 4 19.2 19.2 0 0 1-7.7 1.4l-3.6-.3a9.3 9.3 0 0 1-3.6-1.4 8.4 8.4 0 0 1-2.7-3 10.7 10.7 0 0 1-1-5 14.6 14.6 0 0 1 1-5 59 59 0 0 1 7.7-12.1 116.9 116.9 0 0 1 19.4-19.1l1.4-4.5zm-18 41a6.9 6.9 0 0 0 4-1.1 16.2 16.2 0 0 0 3.3-3.1 27.5 27.5 0 0 0 2.8-4.4 56 56 0 0 0 2.2-5.1 50.8 50.8 0 0 0 1.7-5.1l1.1-4.4a45.9 45.9 0 0 0-11.4 11l-3 4a27.3 27.3 0 0 0-2 3.8 6.8 6.8 0 0 0-.7 2.8c.1 1 .7 1.7 2 1.7zm7.3-51.7l.2 2.4a7.3 7.3 0 0 0 .6 2 4.4 4.4 0 0 0 1.2 1.6 2.9 2.9 0 0 0 2 .6A4.3 4.3 0 0 0 255 83a13.2 13.2 0 0 0 2.5-3.8 27.4 27.4 0 0 0 2.6-8.4l3-14.4a7.6 7.6 0 0 0-3.9 1 15.4 15.4 0 0 0-3.6 2.7 29 29 0 0 0-7 13.4 12.4 12.4 0 0 0-.8 4.5z"/>
  <path d="M285.1 83.7l.2-5 .7-6 1-6.5 2.5-11.8a22.1 22.1 0 0 1 1.3-4.1 9.1 9.1 0 0 1 .8-1.7l1-1a5 5 0 0 1 1.2-.5l2-.1h2a1.4 1.4 0 0 1 1 .7 2.5 2.5 0 0 1 .3 1.3l.1 2.4v4.4l.1 5h.5l2.2-4.3a34 34 0 0 1 2.8-4.5 15.3 15.3 0 0 1 3.7-3.5 7.9 7.9 0 0 1 6.5-1.1 3.8 3.8 0 0 1 1.5.9 4.7 4.7 0 0 1 1.4 3.3l-.2 2.3-.5 3-.5 3.3a12.8 12.8 0 0 0-.2 2.6 11.7 11.7 0 0 0 .3 2.9 4.8 4.8 0 0 0 1 1.9 3 3 0 0 0 1.2 1l1.5.3a10.5 10.5 0 0 0 4.5-1 33 33 0 0 0 8.8-5.4L333 74l-2.9 1.9a39.4 39.4 0 0 1-7.2 3.4 13.9 13.9 0 0 1-4 .6 10.5 10.5 0 0 1-5.9-1.5 11.2 11.2 0 0 1-3.6-4 21.6 21.6 0 0 1-2-5.3 59.7 59.7 0 0 1-1-6.1h-.8L297 87.4a30.1 30.1 0 0 1-2.5 5 3.8 3.8 0 0 1-3 1.5 5.3 5.3 0 0 1-3.2-1 6 6 0 0 1-1.9-2.2 21 21 0 0 1-1.2-7z"/>
  <path d="M381 82a52.5 52.5 0 0 1-7.2 7.7 23.6 23.6 0 0 1-5 3.2 12 12 0 0 1-5.4 1.3A7.6 7.6 0 0 1 358 92a17.7 17.7 0 0 1-3.7-6 26 26 0 0 1-10.8 7.3 13 13 0 0 1-4.4.7 11.9 11.9 0 0 1-8.5-3.7A12.6 12.6 0 0 1 328 86a17.2 17.2 0 0 1-1-5.8 28.7 28.7 0 0 1 1-7.5 40 40 0 0 1 12.5-20.2 29.2 29.2 0 0 1 6.2-4 15.7 15.7 0 0 1 6.6-1.3 3.4 3.4 0 0 1 1.8.4 2.4 2.4 0 0 1 1 1l.8 1a2.5 2.5 0 0 0 1 .9l1.2.3H362.4l1.4.2a2 2 0 0 1 1.1.6 3.7 3.7 0 0 1 .8 1.4 7.8 7.8 0 0 1 .3 2.4 33.7 33.7 0 0 1-.5 5.2l-1 5.9-1.2 6a29 29 0 0 0 0 9.3 1.7 1.7 0 0 0 1.7 1.3 5.4 5.4 0 0 0 2.1-.5l2.3-1.3a38.9 38.9 0 0 0 9.3-10.1L381 82zm-41.7-4l.2 2.5a7.3 7.3 0 0 0 .6 2 4.4 4.4 0 0 0 1.2 1.6 2.9 2.9 0 0 0 2 .6 4.3 4.3 0 0 0 3.2-1.6 13.2 13.2 0 0 0 2.5-3.8 27.4 27.4 0 0 0 2.6-8.4l3-14.4a7.6 7.6 0 0 0-3.9 1 15.4 15.4 0 0 0-3.6 2.7 20.5 20.5 0 0 0-3 3.9 29.6 29.6 0 0 0-4 9.5 14 14 0 0 0-.8 4.5z"/>
  <path d="M395.5 85.3A33.5 33.5 0 0 0 422.6 73l.5 11.2A27 27 0 0 1 409 93a22.4 22.4 0 0 1-5.7.8l-.9-.1-1.8-.3-3.6-.7-6.4-1v.9a79.4 79.4 0 0 1-1.5 16 51.6 51.6 0 0 1-4 12.5 25.2 25.2 0 0 1-5.7 7.9 10.4 10.4 0 0 1-6.7 2.8 7.4 7.4 0 0 1-4.6-1.4 10.2 10.2 0 0 1-3-3.7 20.2 20.2 0 0 1-1.6-5.4 46.5 46.5 0 0 1-.5-6.6 20 20 0 0 1 .6-4.5 46.2 46.2 0 0 1 4.1-11c1-1.8 1.8-3.7 2.8-5.4 2.3-4.4 5-8.7 7.6-13l1.1-7.7a84.9 84.9 0 0 1 3.5-15 22.5 22.5 0 0 1 3.3-5.8 14.3 14.3 0 0 1 11.7-5.5 20.5 20.5 0 0 1 5.6.8 10.7 10.7 0 0 1 4.5 2.6 13.3 13.3 0 0 1 3.1 4.7 18 18 0 0 1 1.1 7 19.6 19.6 0 0 1-4 12.3 26.6 26.6 0 0 1-5.4 5.3A44.2 44.2 0 0 1 395 84l.6 1.3zm-23 30.2l.1 1.3.6 1.8 1 1.6a1.9 1.9 0 0 0 1.6.7 1.6 1.6 0 0 0 1.4-1 6.7 6.7 0 0 0 1-2.3l.4-3.4.2-4 .1-3.8.1-3.4.2-4.5.1-3.1.1-2.3-1.8 3.7-1.7 4.4-1.4 4.6-1 4.3-.8 3.4-.3 2zm17-35.2a28 28 0 0 0 5-3.3 27.2 27.2 0 0 0 3.7-4 18.6 18.6 0 0 0 2.5-4.1 34.3 34.3 0 0 0 1.6-4.5 9.5 9.5 0 0 0 .3-2.5 7.7 7.7 0 0 0-.3-2.7A5 5 0 0 0 401 57a3.3 3.3 0 0 0-2.5-1 5.3 5.3 0 0 0-3.2 1 10.5 10.5 0 0 0-2.4 2.8 17.4 17.4 0 0 0-1.7 4 36.7 36.7 0 0 0-1 5 50.5 50.5 0 0 0-.7 5.7z"/>
  <path d="M437.2 63.6l4.5-5.7a70.2 70.2 0 0 1 5.2-5.6 38.5 38.5 0 0 1 5.3-4.3 8.4 8.4 0 0 1 5-1.7l1.3.2a2.9 2.9 0 0 1 1.4.8 5 5 0 0 1 1.1 1.6 7 7 0 0 1 .4 2.7 23.7 23.7 0 0 1-.9 6.5l-2 6.3-2 6.4a26 26 0 0 0-.9 6.8 6.8 6.8 0 0 0 .6 3q.6 1.3 1.5 1.3a7 7 0 0 0 2.5-.5 21 21 0 0 0 5.2-3.1l2.4-2.1a59.3 59.3 0 0 0 5.3-5.7l.8 13-2.2 1.7-3 2.2-3.5 2.3a28.6 28.6 0 0 1-11.4 4.2 8.4 8.4 0 0 1-4.7-1.4 11.4 11.4 0 0 1-3.2-3.7 19 19 0 0 1-2.5-10 54 54 0 0 1 2.8-11.1l1.4-3.3a37.8 37.8 0 0 1 1.7-3.5l-1-.1a82.2 82.2 0 0 0-12.5 15.7A72.5 72.5 0 0 0 431 85l-1.8 3.8-1.3 2.7a5.6 5.6 0 0 1-1.4 1.6 3.1 3.1 0 0 1-2 .5 3.3 3.3 0 0 1-2.5-1 5.2 5.2 0 0 1-1.4-2.4 19.7 19.7 0 0 1-.6-3.5V74.2c0-3.5.2-7.4.5-11.7s.6-8.8 1.1-13.6a170.5 170.5 0 0 1 5.5-27.4 55.1 55.1 0 0 1 5-11.1 23.6 23.6 0 0 1 6.7-7.6 14.7 14.7 0 0 1 13.3-2 7.3 7.3 0 0 1 2.7 2.2 8.7 8.7 0 0 1 1.4 3.4 32.4 32.4 0 0 1-.6 12.4 96.4 96.4 0 0 1-6.5 18.7c-2.6 6-5.6 12-8.8 18l-3.8 7zm4.4-30.2a131.5 131.5 0 0 0 4.2-12.6 32.7 32.7 0 0 0 1.3-7.6c0-2.5-.3-3.7-1-3.7s-2 1.4-3.8 4.2a106.5 106.5 0 0 0-5.9 12 45.8 45.8 0 0 0-1.5 5.7l-1.3 5.7-1 5.6-.8 5.2c-.6 3.9-1 7.7-1.3 11.4l3-6.7 3-7.2 3-6.7 2.1-5.3z"/>
  <path d="M501.8 83.5a59.7 59.7 0 0 1-16.2 9.4 18.9 18.9 0 0 1-6 1 10.5 10.5 0 0 1-4.3-.7 6.3 6.3 0 0 1-2.8-2A9 9 0 0 1 471 88a16.8 16.8 0 0 1-.5-4 40.4 40.4 0 0 1 .7-7.2c.5-2.7 1-5.5 1.7-8.4l2.2-8.7 2-8a4.4 4.4 0 0 1 1.4-2.2 8.6 8.6 0 0 1 5-2.3 10.7 10.7 0 0 1 2.5-.3 3.9 3.9 0 0 1 2.8.8 2.7 2.7 0 0 1 .7 2 66 66 0 0 1-1.7 7.7l-1.6 5.5c-1 3.9-2 7.8-2.8 11.7a33.6 33.6 0 0 0-.5 5 10.8 10.8 0 0 0 .5 3.6 1.9 1.9 0 0 0 2 1.3 8.9 8.9 0 0 0 4-1.2 33 33 0 0 0 4.2-3l4.3-3.6 3.7-3.2v9.9h.2zM480 33.4a8.3 8.3 0 0 1 2.1-5.2 8.6 8.6 0 0 1 3-2.1 10.2 10.2 0 0 1 4.5-1 11.2 11.2 0 0 1 3.2.5 12.3 12.3 0 0 1 2.6 1.2 6.3 6.3 0 0 1 2.5 5.2 11.3 11.3 0 0 1-.5 3.2 8.1 8.1 0 0 1-1.7 2.8 9.3 9.3 0 0 1-3 2 10.6 10.6 0 0 1-4.3.8c-2.9 0-5-.7-6.3-2a7.2 7.2 0 0 1-2-5.4z"/>
  <path d="M551.3 82a52.5 52.5 0 0 1-7.2 7.7 23.6 23.6 0 0 1-5 3.2 12 12 0 0 1-5.4 1.3 7.6 7.6 0 0 1-5.4-2.1 17.7 17.7 0 0 1-3.7-6 26 26 0 0 1-10.8 7.3 13 13 0 0 1-4.4.7 11.9 11.9 0 0 1-8.5-3.7 12.6 12.6 0 0 1-2.7-4.3 17.2 17.2 0 0 1-1-5.8 28.7 28.7 0 0 1 1-7.5 40 40 0 0 1 12.5-20.2 29.2 29.2 0 0 1 6.2-4 15.7 15.7 0 0 1 6.6-1.3 3.4 3.4 0 0 1 1.8.4 2.4 2.4 0 0 1 1 1l.8 1a2.5 2.5 0 0 0 1 .9l1.2.3H532.7l1.4.2a2 2 0 0 1 1.1.6 3.7 3.7 0 0 1 .8 1.4 7.8 7.8 0 0 1 .3 2.4 33.7 33.7 0 0 1-.5 5.2l-1 5.9-1.2 6a29 29 0 0 0 0 9.3 1.7 1.7 0 0 0 1.7 1.3 5.4 5.4 0 0 0 2.1-.5l2.3-1.3a38.9 38.9 0 0 0 9.3-10.1l2.3 10.7zm-41.7-4l.2 2.5a7.3 7.3 0 0 0 .6 2 4.4 4.4 0 0 0 1.2 1.6 2.9 2.9 0 0 0 2 .6 4.3 4.3 0 0 0 3.2-1.6 13.2 13.2 0 0 0 2.5-3.8 27.4 27.4 0 0 0 2.6-8.4l3-14.4a7.6 7.6 0 0 0-3.9 1 15.4 15.4 0 0 0-3.6 2.7 20.5 20.5 0 0 0-3 3.9 29.6 29.6 0 0 0-4 9.5 14 14 0 0 0-.8 4.5z"/>
</svg>
