<svg id="Camada_1" xmlns="http://www.w3.org/2000/svg" viewBox="0 0 146.5 36.8">
  <path class="st0" d="M19.6 5.7c-.6-1-1.5-1.8-2.6-2.4-1.2-.6-2.6-.9-4.2-.9-2.3 0-4.5.6-6.4 1.9-2 1.3-3.5 3.1-4.7 5.6C.6 12.4 0 15.4 0 19c0 1.9.3 3.5.8 4.8.5 1.3 1.3 2.3 2.2 2.9s1.9.9 3 .9c2 0 3.1-1.2 3.6-3.7l1.1-6.4c2-.1 3.8-.6 5.3-1.4 1.5-.8 2.6-1.8 3.4-3.1.8-1.2 1.2-2.6 1.2-4.1-.1-1.1-.4-2.2-1-3.2zm-8.4 9.2l.8-5.1c0-.2.1-.4.1-.7 0-.5-.1-.8-.4-1s-.7-.3-1.3-.3c-.5 0-1 .1-1.3.4s-.6.6-.7 1.2c-.4 2.3-.7 4.1-1 5.5-.2 0-.6-.1-1-.1H6c-.4 0-.7.1-.9.3-.2.2-.3.5-.3.9s.1.7.2.9.5.4 1 .5c-.1 0 .2 0 .9.1l-.9 5c-.2 1.2-.6 1.8-1 1.8-.3 0-.6-.2-1-.7-.3-.5-.6-1.1-.8-2-.2-.8-.3-1.8-.3-2.9 0-2.6.4-4.9 1.1-6.9.7-2 1.8-3.6 3.1-4.8 1.3-1.1 2.9-1.7 4.7-1.7 1.6 0 2.8.4 3.5 1.1.8.7 1.1 1.7 1.1 2.8.2 3.4-1.6 5.3-5.2 5.7zM42.5 16.1h-.2c.2-.9.3-1.6.3-1.9 0-.6-.1-1-.4-1.3-.3-.3-.7-.4-1.2-.4-.6 0-1.2.2-1.9.6s-1.4 1.1-2.1 2c-.7 1-1.4 2.2-2 3.7.1-.8.2-1.4.3-2s.2-1.1.4-1.8c.3-1 .4-1.6.4-1.9 0-.2-.1-.4-.2-.5-.1-.1-.4-.1-.7-.1-.7 0-1.2.1-1.5.4s-.7.6-.8 1.1c-.3 1-.5 2-.7 3-.8.2-1.5.3-2.1.3-.1-1.4-.6-2.5-1.4-3.4-.8-.9-1.9-1.4-3.2-1.4-1.1 0-2.1.3-3 .9-.9.6-1.6 1.4-2.1 2.5-.5 1-.8 2.2-.8 3.6 0 1 .2 1.9.6 2.7.4.8 1 1.5 1.7 2s1.6.8 2.7.8c1.2 0 2.4-.4 3.3-1.3 1-.9 1.6-2.1 2-3.5.7 0 1.4-.1 2.1-.2v.7c0 1.5.1 2.7.4 3.4.3.7.7 1.1 1.4 1.1.6 0 1-.1 1.2-.4s.5-.8.7-1.7c.3-1.1.6-2.1 1-3.1s.8-1.7 1.3-2.3c.4-.6.8-.9 1-.9.1 0 .2 0 .2.1.1.1.1.2.1.3 0 .1 0 .3-.1.6 0 .4-.1.7-.1 1.1 0 .6.2 1.1.5 1.4.3.4.8.5 1.3.5.6 0 1.2-.2 1.7-.7.5-.4.9-1 1.2-1.6.1-.3.2-.5.2-.7 0-.4-.1-.7-.4-1s-.7-.7-1.1-.7zm-16.3 5.3c-.4.5-.9.7-1.5.7-.5 0-1-.3-1.3-.8-.4-.5-.6-1.2-.6-2.2 0-1.2.2-2.2.7-2.9.5-.7 1.1-1 1.8-1h.1c-.1.3-.1.6-.1.8 0 .7.1 1.3.4 1.9s.7 1.1 1.3 1.5c-.1.9-.4 1.6-.8 2zM133.3 10.8c.8 0 1.4-.2 1.8-.6.5-.4.7-1 .7-1.7 0-.6-.2-1-.6-1.3-.4-.3-.9-.5-1.6-.5-.7 0-1.3.2-1.8.6-.5.4-.7.9-.7 1.5s.2 1.1.6 1.4.8.6 1.6.6z"/>
  <path class="st0" d="M146.2 13.7c-.2-.2-.6-.3-1-.3s-.8 0-1.1.1c-.1-.4-.2-.7-.3-.8s-.4-.2-.8-.2c-1.2 0-2.4.4-3.4 1.1-1.1.8-1.9 1.8-2.6 3-.6 1.2-.9 2.5-1 3.8-.3.4-.6.7-.9.9-.5.4-.9.7-1.2.7-.3 0-.6-.1-.7-.4-.1-.3-.2-.7-.2-1.2 0-.7.2-2 .6-3.9.3-1.6.5-2.6.5-3.1 0-.6-.4-.9-1.3-.9-.6 0-1 .1-1.3.3s-.5.6-.6 1.2c-.3 1.1-.6 2.2-.8 3.5-.2 1-.3 1.9-.3 2.6-.5.6-.9 1-1.2 1.3-.5.4-.9.6-1.3.6-.5 0-.8-.4-.8-1.1 0-.5.2-1.5.5-3 .4-1.8.6-3 .6-3.7 0-1.1-.6-1.7-1.7-1.7-.6 0-1.2.2-1.9.6-.7.4-1.4 1.1-2.1 2s-1.4 2.2-1.9 3.7c0-1 0-1.9.1-2.8 2.3-2.5 4-4.8 5.1-6.7 1-1.9 1.6-3.7 1.6-5.5 0-1.1-.3-2-.8-2.7-.5-.7-1.2-1-2-1-1.5 0-2.8 1-3.9 3s-1.9 4.5-2.5 7.4c-.6 2.9-.8 5.8-.8 8.5v1c-.6.7-1.1 1.2-1.5 1.5-.5.4-1.1.6-1.7.6-.2 0-.6-.1-.9-.2.5-.7.9-1.5 1.2-2.4.3-.9.4-1.8.4-2.7 0-1.3-.3-2.3-.9-3.1-.6-.8-1.4-1.2-2.4-1.2-.6 0-1.2.2-1.7.5s-1.1.8-1.7 1.5v-1c0-.4-.1-.7-.3-.9-.2-.1-.4-.2-.8-.2-.6 0-1.2.1-1.6.4s-.6.7-.6 1.2c0 1 .1 2.8.1 5.4l-.3.6c-.5.6-1 1.1-1.3 1.4-.5.4-.9.6-1.2.6-.2 0-.4-.1-.5-.2-.1-.2-.2-.4-.2-.6 0-.8.2-2.2.6-4.2.3-1.4.4-2.3.4-2.6 0-.6-.4-.9-1.3-.9-.4 0-.8 0-1.2.1-.1-.4-.2-.7-.3-.8s-.4-.2-.8-.2c-1.2 0-2.4.4-3.4 1.1-1.1.8-1.9 1.8-2.6 3-.2.3-.3.7-.4 1-.4.3-.8.5-1.1.5-.4 0-.7-.3-.7-.9 0-.2.1-.6.2-1.3.2-.9.2-1.4.2-1.7 0-1.1-.6-1.7-1.7-1.7-.6 0-1.2.2-1.9.6-.7.4-1.4 1.1-2.1 2-.7 1-1.4 2.2-2 3.7.1-.8.2-1.4.3-2s.2-1.1.4-1.8c.3-1 .4-1.6.4-1.9 0-.2-.1-.4-.2-.5-.1-.1-.4-.1-.7-.1-.7 0-1.2.1-1.5.4s-.6.6-.8 1.1c-.6 1.8-.9 3.6-.9 5.5-1.1.7-2.2 1.6-3.4 2.5.1-.6.2-1.1.3-1.6s.2-1 .2-1.4c.4-2.2.6-3.6.7-4.1v-.5c0-.4-.1-.6-.3-.8s-.5-.2-.9-.2-.8 0-1.2.1c-.1-.4-.2-.7-.3-.8s-.4-.2-.8-.2c-1.2 0-2.4.4-3.4 1.1-1.1.8-1.9 1.8-2.6 3 0 .1-.1.2-.1.3-.9.2-1.6.3-2.3.4-.1-1.4-.6-2.5-1.4-3.4-.8-.9-1.9-1.4-3.2-1.4-1.1 0-2.1.3-3 .9-.9.6-1.6 1.4-2.1 2.5-.5 1-.8 2.2-.8 3.6 0 .3 0 .7.1 1-.4.4-.7.7-1.1 1-.6.5-1.2.7-2 .7-.9 0-1.6-.4-2-1.1-.4-.7-.6-2-.6-3.8 0-.5 0-1.2.1-2.1h3.2c2 0 3-.6 3-1.8 0-.3-.1-.6-.2-.7-.1-.1-.3-.2-.6-.2h-3c2.3-2 3.4-4.4 3.4-7.1 0-1-.2-1.8-.6-2.5-.4-.6-1-1-1.7-1-1 0-1.9.5-2.8 1.4-.9 1-1.6 2.2-2.2 3.8s-1.1 3.4-1.4 5.3h-1.5c-.8 0-1.2.5-1.2 1.5 0 .4.1.7.3.9.2.2.5.3 1.1.3h1c-.5.6-.5 1.4-.5 2.2 0 5 1.8 7.6 5.4 7.6 1.2 0 2.2-.3 3.1-.9.5-.3 1-.7 1.4-1.2.3.5.8 1 1.3 1.3.7.5 1.6.8 2.7.8 1.2 0 2.4-.4 3.3-1.3 1-.9 1.6-2.1 2-3.5.6 0 1.1-.1 1.7-.2v.8c0 1.3.3 2.3 1 3.1.6.8 1.5 1.2 2.6 1.2.5 0 1-.1 1.4-.4.5-.3.9-.6 1.2-1.1l-.2 1c-2.7 2.1-4.6 3.9-5.5 5.3-1 1.4-1.5 2.8-1.5 4 0 .9.3 1.6.8 2.2s1.3.8 2.2.8c1.7 0 3-1 4.1-3.1 1.1-2.1 2-4.9 2.6-8.6l1.7-1.1c.5-.4 1.3-.9 2.3-1.6.1.6.2 1.1.3 1.5.3.7.7 1.1 1.4 1.1.5 0 .9-.1 1.2-.4s.5-.8.7-1.7c.3-1.1.6-2.1 1-3.1s.8-1.7 1.3-2.3c.4-.6.8-.9 1-.9.2 0 .3.1.3.4 0 .1 0 .4-.1.7-.1.3-.1.5-.1.8 0 .8.2 1.5.7 1.9.5.5 1.2.7 2.1.7.5 0 1.1-.1 1.6-.3 0 1.2.3 2.2 1 2.9.6.8 1.5 1.2 2.6 1.2 1.4 0 2.5-.7 3.5-2.2.2.7.6 1.2 1.1 1.6.5.4 1 .6 1.6.6.2 0 .4 0 .6-.1-.3.7-.6 1.4-.8 2.1-.8 2.3-1.2 4.3-1.2 6 0 1.2.2 2.2.7 2.8.5.7 1.2 1 2.1 1 1.6 0 2.8-1.1 3.6-3.4.8-2.3 1.3-5.1 1.6-8.5 1.1 0 2.1-.4 3.1-1 .6.7 1.3 1 2.3 1 1.1 0 2.1-.3 3-.9.3-.2.7-.5 1-.8 0 .5.1.9.2 1.1.2.4.5.6 1 .6 1.3 0 2.1-.7 2.5-2.1.3-1.1.6-2.1 1-3.1s.8-1.7 1.3-2.3c.4-.6.7-.9 1-.9.2 0 .3.1.3.4 0 .4-.1 1.2-.3 2.3-.2 1.3-.4 2.1-.4 2.6 0 1 .2 1.7.7 2.3.5.5 1.1.8 2 .8 1.1 0 2.1-.3 2.9-.9.4-.3.8-.6 1.3-1 .1.3.2.5.4.7.5.8 1.3 1.2 2.5 1.2 1.1 0 2.3-.6 3.5-1.7.1.2.2.4.3.5.6.8 1.4 1.2 2.4 1.2 1.3 0 2.3-.8 2.8-2.3v.4c0 .7.1 1.1.4 1.4.3.3.7.4 1.3.4.6 0 1.1-.1 1.3-.4s.4-.8.4-1.4c0-1.2.1-2.3.2-3.3s.3-2 .4-3.1c.2-1 .3-1.7.3-2.1 0-.3-.1-.6-.3-.8zm-25-6.1c.4-1.5.7-2.8 1.1-3.7.4-.9.7-1.4 1.1-1.4.2 0 .4.2.5.4.1.3.2.7.2 1.3 0 1.2-.4 2.6-1.1 4.1-.7 1.5-1.6 2.9-2.7 4.2.3-1.7.6-3.3.9-4.9zM50.3 8c.3-1.2.6-2.1.9-2.7s.6-1 .9-1c.4 0 .6.5.6 1.6 0 .9-.3 1.9-.8 3s-1.3 2.1-2.3 3c.1-1.4.4-2.7.7-3.9zm11.2 13.4c-.4.5-.9.7-1.5.7-.5 0-1-.3-1.3-.8-.4-.5-.6-1.2-.6-2.2 0-1.2.2-2.2.7-2.9.5-.7 1.1-1 1.8-1h.1c-.1.3-.1.6-.1.8 0 .7.1 1.3.4 1.9s.7 1.1 1.3 1.5c-.1.9-.3 1.6-.8 2zm9.2 11.2c-.6 1.1-1.1 1.6-1.5 1.6-.3 0-.5-.1-.6-.3-.1-.2-.2-.4-.2-.7 0-.7.3-1.5.9-2.5s1.6-2 2.9-3.1c-.5 2.3-1 4-1.5 5zm2.6-13.2c-.2.9-.4 1.6-.8 2.1s-.8.7-1.2.7c-.4 0-.7-.1-.9-.4-.2-.3-.3-.7-.3-1.2 0-1 .2-1.9.6-2.8.4-.9.9-1.6 1.5-2.1s1.3-.8 2-.8l-.9 4.5zm24.3.4c-.2.8-.4 1.4-.8 1.8-.4.5-.7.7-1.1.7-.4 0-.7-.1-.9-.4-.2-.3-.3-.7-.3-1.2 0-1 .2-1.9.6-2.8.4-.9.9-1.6 1.5-2.1s1.3-.8 2-.8l-1 4.8zm6.1 11.4c-.3 2.1-.7 3.1-1.2 3.1-.2 0-.3-.2-.5-.4s-.2-.7-.2-1.3c0-1.1.2-2.4.7-4 .4-1.6 1-3.3 1.8-5-.1 2.9-.3 5.5-.6 7.6zm6.9-11.9c-.3.8-.7 1.5-1.3 2.1-.5.6-1.1.9-1.8 1v-1.9-3.4c.9-1.3 1.7-2 2.3-2 .4 0 .6.1.8.4s.3.7.3 1.2c.1.9 0 1.8-.3 2.6zm32.2-1.7c-.3 1.8-.7 3-1.1 3.7-.4.7-.9 1-1.3 1-.3 0-.6-.1-.8-.4s-.3-.7-.3-1.2c0-1 .2-1.9.6-2.8.4-.9.9-1.6 1.5-2.1s1.3-.8 2-.8l-.6 2.6z"/>
</svg>
